<?xml version="1.0" encoding="UTF-8"?>
<svg id="Layer_1" data-name="Layer 1" xmlns="http://www.w3.org/2000/svg" viewBox="0 0 70.13 89.69">
  <defs>
    <style>
      .cls-1 {
        stroke-width: 3.22px;
      }

      .cls-1, .cls-2 {
        fill: none;
        stroke: #231f20;
        stroke-miterlimit: 10;
      }

      .cls-3 {
        fill: #231f20;
      }

      .cls-2 {
        stroke-width: 4.56px;
      }
    </style>
  </defs>
  <path class="cls-2" d="M44.81,19.23c-2.92,0-5.6,1.48-7.71,3.94-2.12-2.46-4.79-3.94-7.71-3.94-6.84,0-12.38,8.07-12.38,18.03s13.22,22.75,20.05,22.75,20.13-12.79,20.13-22.75-5.54-18.03-12.38-18.03Z"/>
  <g>
    <path class="cls-1" d="M4.81,37.42c0-17.59,14.26-31.85,31.85-31.85s31.5,14.26,31.85,31.85c.37,18.76-14.77,28.72-20.88,28.72"/>
    <polygon class="cls-3" points="36.26 66.14 52.28 59.6 48.48 66.14 52.28 72.69 36.26 66.14"/>
  </g>
  <path class="cls-1" d="M34.6,65.54c-17.59,0-29.79-13.17-29.79-30.76"/>
</svg>