<?xml version="1.0" encoding="UTF-8"?>
<svg id="Layer_1" data-name="Layer 1" xmlns="http://www.w3.org/2000/svg" viewBox="0 0 757.81 277.55">
  <defs>
    <style>
      .cls-1 {
        opacity: .4;
      }

      .cls-1, .cls-2, .cls-3, .cls-4, .cls-5, .cls-6, .cls-7, .cls-8 {
        fill: #d4f2ff;
      }

      .cls-2 {
        opacity: .3;
      }

      .cls-3 {
        opacity: .5;
      }

      .cls-4 {
        opacity: .6;
      }

      .cls-9 {
        fill: #fff;
        stroke: #e6e6e6;
        stroke-width: 4px;
      }

      .cls-9, .cls-5 {
        stroke-miterlimit: 10;
      }

      .cls-5 {
        stroke: #999;
      }

      .cls-7 {
        opacity: .7;
      }

      .cls-8 {
        opacity: .8;
      }
      .text {
        fill: #333;
      }
    </style>
  </defs>
  <path class="cls-2" d="M227.46,240.25c7.51-.84-18.73-141.81-25.71-130.1-7.89-10.63-39.34,129.79-31.52,129.87,10.98,49.01,46.71,48.64,57.23,.23Z"/>
  <path class="cls-1" d="M296.69,240.47c7.51-.84-18.73-141.81-25.71-130.1-7.89-10.63-39.34,129.79-31.52,129.87,10.98,49.01,46.71,48.64,57.23,.23Z"/>
  <path class="cls-3" d="M365.74,240.36c7.51-.84-18.73-141.81-25.71-130.1-7.89-10.63-39.34,129.79-31.52,129.87,10.98,49.01,46.71,48.64,57.23,.23Z"/>
  <path class="cls-4" d="M434.97,240.57c7.51-.84-18.73-141.81-25.71-130.1-7.89-10.63-39.34,129.79-31.52,129.87,10.98,49.01,46.71,48.64,57.23,.23Z"/>
  <path class="cls-7" d="M503.93,240.31c7.51-.84-18.73-141.81-25.71-130.1-7.89-10.63-39.34,129.79-31.52,129.87,10.98,49.01,46.71,48.64,57.23,.23Z"/>
  <path class="cls-8" d="M573.16,240.52c7.51-.84-18.73-141.81-25.71-130.1-7.89-10.63-39.34,129.79-31.52,129.87,10.98,49.01,46.71,48.64,57.23,.23Z"/>
  <path class="cls-6" d="M642.21,240.41c7.51-.84-18.73-141.81-25.71-130.1-7.89-10.63-39.34,129.79-31.52,129.87,10.98,49.01,46.71,48.64,57.23,.23Z"/>
  <path class="cls-5" d="M711.44,240.63c7.51-.84-18.73-141.81-25.71-130.1-7.89-10.63-39.34,129.79-31.52,129.87,10.98,49.01,46.71,48.64,57.23,.23Z"/>
  <g>
    <g>
      <path class="cls-9" d="M45.82,111.32c-12.79,0-22.67-3.36-29.63-10.09-6.96-6.73-10.44-16.39-10.44-28.99s2.95-21.81,8.85-28.6c5.9-6.8,14.23-10.2,24.99-10.2,10.15,0,17.99,3.07,23.54,9.2,5.55,6.14,8.32,15.06,8.32,26.76,0,3.45-.14,6.66-.42,9.63H18.34v-11.47H57.85c0-6.75-1.6-11.93-4.81-15.54-3.21-3.61-7.65-5.42-13.31-5.42-6.37,0-11.32,2.17-14.83,6.51-3.52,4.34-5.27,10.48-5.27,18.41,0,8.69,2.42,15.29,7.26,19.82,4.84,4.53,11.72,6.8,20.64,6.8,3.12,0,6.18-.18,9.2-.53,3.02-.35,6.09-.84,9.2-1.45l1.84,13.17c-4.44,.85-8.5,1.39-12.18,1.63-3.68,.24-6.94,.35-9.77,.35Z"/>
      <path class="cls-9" d="M93.11,109.9v-13.17h30.02v13.17h-30.02Zm4.25-61.88v-13.17h39.37v13.17h-39.37Zm31.36-25.06c-2.88,0-5.35-1.03-7.4-3.08s-3.08-4.52-3.08-7.4,1.03-5.4,3.08-7.43c2.05-2.03,4.52-3.04,7.4-3.04s5.4,1.02,7.43,3.04c2.03,2.03,3.04,4.51,3.04,7.43s-1.02,5.35-3.04,7.4c-2.03,2.05-4.51,3.08-7.43,3.08Zm-7.01,86.94V39.1h15.01V109.9h-15.01Zm13.59,0v-13.17h24.5v13.17h-24.5Z"/>
      <path class="cls-9" d="M203.49,111.32c-9.82,0-17.26-3.23-22.34-9.7-5.07-6.47-7.61-15.98-7.61-28.53s2.54-22.89,7.61-29.59c5.07-6.7,12.52-10.05,22.34-10.05,5.85,0,10.6,1.32,14.23,3.96,3.63,2.64,5.76,6.33,6.37,11.04h5.81l-5.1,21.38c0-7.74-1.52-13.62-4.57-17.63-3.04-4.01-7.52-6.02-13.42-6.02s-10.62,2.27-13.74,6.8-4.67,11.23-4.67,20.11c0,8.4,1.56,14.75,4.67,19.04,3.12,4.3,7.69,6.44,13.74,6.44s10.37-2.01,13.42-6.02c3.04-4.01,4.57-9.89,4.57-17.63l5.1,21.38h-6.51c-.47,4.72-2.47,8.4-5.98,11.04-3.52,2.64-8.15,3.96-13.91,3.96Zm-23.86,32.43l-.71-13.74,24.07-.71c7.6-.24,13.12-2.34,16.57-6.3,3.44-3.96,5.19-9.79,5.24-17.49V50.71l1.42-15.86h13.59V103.25c0,13.36-3.04,23.22-9.13,29.59s-15.79,9.77-29.1,10.2l-21.95,.71Z"/>
      <path class="cls-9" d="M263.6,109.9V3.7h15.01V109.9h-15.01Zm46.16,0V61.05c0-4.77-1.18-8.44-3.54-11.01-2.36-2.57-5.66-3.86-9.91-3.86-11.8,0-17.7,7.18-17.7,21.52l-4.39-19.26h5.81c.42-5.05,2.27-8.81,5.52-11.29,3.26-2.48,8.02-3.72,14.3-3.72,7.93,0,14.06,2.41,18.41,7.22,4.34,4.81,6.51,11.61,6.51,20.39v48.85h-15.01Z"/>
      <path class="cls-9" d="M341.62,48.02v-13.17h67.97v13.17h-67.97Zm18.83,26.48V12.2h15.01v62.3h-15.01Zm32.29,36.82c-11.38,0-19.6-2.36-24.67-7.08-5.07-4.72-7.61-12.27-7.61-22.66v-12.74h15.01v12.04c0,5.95,1.45,10.27,4.35,12.96,2.9,2.69,7.68,4.04,14.34,4.04,2.36,0,4.86-.13,7.5-.39,2.64-.26,5.66-.6,9.06-1.03l1.7,13.17c-3.3,.57-6.53,.99-9.66,1.27-3.14,.28-6.48,.42-10.02,.42Z"/>
      <path class="cls-9" d="M431.54,109.9V9.36h14.73V109.9h-14.73Zm13.74,0v-13.45h10.62c10.34,0,18.11-2.95,23.33-8.85,5.21-5.9,7.82-14.75,7.82-26.55,0-12.79-2.61-22.36-7.82-28.71-5.22-6.35-12.99-9.52-23.33-9.52h-10.34l-1.7-13.45h12.04c30.68,0,46.02,17.23,46.02,51.68,0,32.57-15.34,48.85-46.02,48.85h-10.62Z"/>
      <path class="cls-9" d="M516.5,109.9V9.36h14.73V109.9h-14.73Zm13.74-38.23v-13.45h20.82c5.62,0,9.99-1.49,13.13-4.46,3.14-2.97,4.71-7.15,4.71-12.53,0-5.9-1.57-10.44-4.71-13.63-3.14-3.19-7.52-4.78-13.13-4.78h-20.53l-1.7-13.45h22.23c10.43,0,18.49,2.64,24.18,7.93,5.69,5.29,8.53,12.79,8.53,22.51s-2.84,17.94-8.53,23.51c-5.69,5.57-13.75,8.35-24.18,8.35h-20.82Zm40.21,38.23l-22.51-47.29h15.58l23.93,47.29h-16.99Z"/>
      <path class="cls-9" d="M634.03,111.32c-24.73,0-37.1-16.99-37.1-50.98s12.37-52.39,37.1-52.39,37.1,17.46,37.1,52.39-12.37,50.98-37.1,50.98Zm0-13.03c14.63,0,21.95-12.65,21.95-37.95s-7.32-39.37-21.95-39.37-21.95,13.12-21.95,39.37,7.32,37.95,21.95,37.95Z"/>
      <path class="cls-9" d="M687.84,109.9V9.36h14.73V109.9h-14.73Zm13.03-31.15v-13.45h16.57c7.74,0,13.59-1.92,17.56-5.77,3.96-3.85,5.95-9.48,5.95-16.89,0-6.51-1.98-11.45-5.95-14.8-3.96-3.35-9.82-5.03-17.56-5.03h-16.28V9.36h16.28c12.6,0,22.15,2.81,28.64,8.43,6.49,5.62,9.74,13.9,9.74,24.85,0,11.85-3.25,20.83-9.74,26.94-6.49,6.11-16.04,9.17-28.64,9.17h-16.57Z"/>
    </g>
    <g>
      <path class="text" d="M40.07,111.72c-12.79,0-22.67-3.36-29.63-10.09C3.48,94.91,0,85.25,0,72.64s2.95-21.81,8.85-28.6c5.9-6.8,14.23-10.2,24.99-10.2,10.15,0,17.99,3.07,23.54,9.2,5.55,6.14,8.32,15.06,8.32,26.76,0,3.45-.14,6.66-.42,9.63H12.6v-11.47H52.11c0-6.75-1.6-11.93-4.81-15.54-3.21-3.61-7.65-5.42-13.31-5.42-6.37,0-11.32,2.17-14.83,6.51-3.52,4.34-5.27,10.48-5.27,18.41,0,8.69,2.42,15.29,7.26,19.82,4.84,4.53,11.72,6.8,20.64,6.8,3.12,0,6.18-.18,9.2-.53,3.02-.35,6.09-.84,9.2-1.45l1.84,13.17c-4.44,.85-8.5,1.39-12.18,1.63-3.68,.24-6.94,.35-9.77,.35Z"/>
      <path class="text" d="M87.37,110.31v-13.17h30.02v13.17h-30.02Zm4.25-61.88v-13.17h39.37v13.17h-39.37Zm31.36-25.06c-2.88,0-5.35-1.03-7.4-3.08s-3.08-4.52-3.08-7.4,1.03-5.4,3.08-7.43c2.05-2.03,4.52-3.04,7.4-3.04s5.4,1.02,7.43,3.04c2.03,2.03,3.04,4.51,3.04,7.43s-1.02,5.35-3.04,7.4c-2.03,2.05-4.51,3.08-7.43,3.08Zm-7.01,86.94V39.51h15.01V110.31h-15.01Zm13.59,0v-13.17h24.5v13.17h-24.5Z"/>
      <path class="text" d="M197.75,111.72c-9.82,0-17.26-3.23-22.34-9.7-5.07-6.47-7.61-15.98-7.61-28.53s2.54-22.89,7.61-29.59c5.07-6.7,12.52-10.05,22.34-10.05,5.85,0,10.6,1.32,14.23,3.96,3.63,2.64,5.76,6.33,6.37,11.04h5.81l-5.1,21.38c0-7.74-1.52-13.62-4.57-17.63-3.04-4.01-7.52-6.02-13.42-6.02s-10.62,2.27-13.74,6.8-4.67,11.23-4.67,20.11c0,8.4,1.56,14.75,4.67,19.04,3.12,4.3,7.69,6.44,13.74,6.44s10.37-2.01,13.42-6.02c3.04-4.01,4.57-9.89,4.57-17.63l5.1,21.38h-6.51c-.47,4.72-2.47,8.4-5.98,11.04-3.52,2.64-8.15,3.96-13.91,3.96Zm-23.86,32.43l-.71-13.74,24.07-.71c7.6-.24,13.12-2.34,16.57-6.3,3.44-3.96,5.19-9.79,5.24-17.49V51.12l1.42-15.86h13.59V103.65c0,13.36-3.04,23.22-9.13,29.59s-15.79,9.77-29.1,10.2l-21.95,.71Z"/>
      <path class="text" d="M257.86,110.31V4.11h15.01V110.31h-15.01Zm46.16,0V61.46c0-4.77-1.18-8.44-3.54-11.01-2.36-2.57-5.66-3.86-9.91-3.86-11.8,0-17.7,7.18-17.7,21.52l-4.39-19.26h5.81c.42-5.05,2.27-8.81,5.52-11.29,3.26-2.48,8.02-3.72,14.3-3.72,7.93,0,14.06,2.41,18.41,7.22,4.34,4.81,6.51,11.61,6.51,20.39v48.85h-15.01Z"/>
      <path class="text" d="M335.88,48.43v-13.17h67.97v13.17h-67.97Zm18.83,26.48V12.6h15.01v62.3h-15.01Zm32.29,36.82c-11.38,0-19.6-2.36-24.67-7.08-5.07-4.72-7.61-12.27-7.61-22.66v-12.74h15.01v12.04c0,5.95,1.45,10.27,4.35,12.96,2.9,2.69,7.68,4.04,14.34,4.04,2.36,0,4.86-.13,7.5-.39,2.64-.26,5.66-.6,9.06-1.03l1.7,13.17c-3.3,.57-6.53,.99-9.66,1.27-3.14,.28-6.48,.42-10.02,.42Z"/>
      <path class="text" d="M425.8,110.31V9.77h14.73V110.31h-14.73Zm13.74,0v-13.45h10.62c10.34,0,18.11-2.95,23.33-8.85,5.21-5.9,7.82-14.75,7.82-26.55,0-12.79-2.61-22.36-7.82-28.71-5.22-6.35-12.99-9.52-23.33-9.52h-10.34l-1.7-13.45h12.04c30.68,0,46.02,17.23,46.02,51.68,0,32.57-15.34,48.85-46.02,48.85h-10.62Z"/>
      <path class="text" d="M510.76,110.31V9.77h14.73V110.31h-14.73Zm13.74-38.23v-13.45h20.82c5.62,0,9.99-1.49,13.13-4.46,3.14-2.97,4.71-7.15,4.71-12.53,0-5.9-1.57-10.44-4.71-13.63-3.14-3.19-7.52-4.78-13.13-4.78h-20.53l-1.7-13.45h22.23c10.43,0,18.49,2.64,24.18,7.93,5.69,5.29,8.53,12.79,8.53,22.51s-2.84,17.94-8.53,23.51c-5.69,5.57-13.75,8.35-24.18,8.35h-20.82Zm40.21,38.23l-22.51-47.29h15.58l23.93,47.29h-16.99Z"/>
      <path class="text" d="M628.29,111.72c-24.73,0-37.1-16.99-37.1-50.98s12.37-52.39,37.1-52.39,37.1,17.46,37.1,52.39-12.37,50.98-37.1,50.98Zm0-13.03c14.63,0,21.95-12.65,21.95-37.95s-7.32-39.37-21.95-39.37-21.95,13.12-21.95,39.37,7.32,37.95,21.95,37.95Z"/>
      <path class="text" d="M682.09,110.31V9.77h14.73V110.31h-14.73Zm13.03-31.15v-13.45h16.57c7.74,0,13.59-1.92,17.56-5.77,3.96-3.85,5.95-9.48,5.95-16.89,0-6.51-1.98-11.45-5.95-14.8-3.96-3.35-9.82-5.03-17.56-5.03h-16.28V9.77h16.28c12.6,0,22.15,2.81,28.64,8.43,6.49,5.62,9.74,13.9,9.74,24.85,0,11.85-3.25,20.83-9.74,26.94-6.49,6.11-16.04,9.17-28.64,9.17h-16.57Z"/>
    </g>
  </g>
</svg>